<svg width="44" height="44" viewBox="0 0 44 44" fill="none" xmlns="http://www.w3.org/2000/svg">
<path d="M32.0732 18.931C31.9524 18.9313 31.8337 18.8996 31.729 18.8393C31.6243 18.7789 31.5375 18.692 31.4772 18.5873L25.3729 8.01421C25.2831 7.85638 25.2595 7.66948 25.307 7.49427C25.3546 7.31907 25.4696 7.16979 25.6268 7.07902C25.784 6.98824 25.9707 6.96334 26.1463 7.00974C26.3218 7.05615 26.4718 7.17009 26.5636 7.32671L32.6679 17.8998C32.7282 18.0042 32.76 18.1227 32.76 18.2433C32.7601 18.364 32.7284 18.4825 32.6681 18.587C32.6079 18.6915 32.5212 18.7783 32.4168 18.8386C32.3123 18.899 32.1939 18.9309 32.0732 18.931ZM11.9274 18.931C11.8067 18.9311 11.6881 18.8994 11.5836 18.839C11.4791 18.7787 11.3923 18.6919 11.332 18.5873C11.2717 18.4827 11.24 18.3641 11.2401 18.2434C11.2403 18.1227 11.2722 18.0042 11.3327 17.8998L17.4371 7.32671C17.4822 7.24852 17.5423 7.17999 17.6139 7.12503C17.6856 7.07007 17.7673 7.02976 17.8545 7.00639C17.9417 6.98303 18.0327 6.97707 18.1222 6.98885C18.2117 7.00064 18.298 7.02994 18.3762 7.07508C18.4544 7.12022 18.5229 7.18032 18.5779 7.25195C18.6328 7.32357 18.6731 7.40532 18.6965 7.49253C18.7199 7.57974 18.7258 7.67069 18.714 7.7602C18.7023 7.84971 18.673 7.93602 18.6278 8.01421L12.5235 18.5873C12.3956 18.8073 12.1646 18.931 11.9274 18.931ZM39.875 20.9935H4.125C3.94266 20.9935 3.7678 20.9211 3.63886 20.7922C3.50993 20.6632 3.4375 20.4884 3.4375 20.306C3.4375 20.1237 3.50993 19.9488 3.63886 19.8199C3.7678 19.691 3.94266 19.6185 4.125 19.6185H39.875C40.0573 19.6185 40.2322 19.691 40.3611 19.8199C40.4901 19.9488 40.5625 20.1237 40.5625 20.306C40.5625 20.4884 40.4901 20.6632 40.3611 20.7922C40.2322 20.9211 40.0573 20.9935 39.875 20.9935Z" fill="black"/>
<path d="M4.125 20.9935C3.94266 20.9935 3.7678 20.9211 3.63886 20.7921C3.50993 20.6632 3.4375 20.4883 3.4375 20.306V16.181C3.4375 15.9987 3.50993 15.8238 3.63886 15.6949C3.7678 15.5659 3.94266 15.4935 4.125 15.4935C4.30734 15.4935 4.4822 15.5659 4.61114 15.6949C4.74007 15.8238 4.8125 15.9987 4.8125 16.181V20.306C4.8125 20.4883 4.74007 20.6632 4.61114 20.7921C4.4822 20.9211 4.30734 20.9935 4.125 20.9935Z" fill="black"/>
<path d="M39.875 16.8685H4.125C3.94266 16.8685 3.7678 16.7961 3.63886 16.6671C3.50993 16.5382 3.4375 16.3633 3.4375 16.181C3.4375 15.9987 3.50993 15.8238 3.63886 15.6949C3.7678 15.5659 3.94266 15.4935 4.125 15.4935H39.875C40.0573 15.4935 40.2322 15.5659 40.3611 15.6949C40.4901 15.8238 40.5625 15.9987 40.5625 16.181C40.5625 16.3633 40.4901 16.5382 40.3611 16.6671C40.2322 16.7961 40.0573 16.8685 39.875 16.8685Z" fill="black"/>
<path d="M40.0495 20.5C39.8672 20.5 39.6923 20.4276 39.5634 20.2986C39.4345 20.1697 39.362 19.9948 39.362 19.8125V15.6875C39.362 15.5052 39.4345 15.3303 39.5634 15.2014C39.6923 15.0724 39.8672 15 40.0495 15C40.2319 15 40.4067 15.0724 40.5357 15.2014C40.6646 15.3303 40.737 15.5052 40.737 15.6875V19.8125C40.737 19.9948 40.6646 20.1697 40.5357 20.2986C40.4067 20.4276 40.2319 20.5 40.0495 20.5ZM31.354 33.5625C31.2586 33.5628 31.1641 33.5432 31.0767 33.5049C30.9893 33.4666 30.9108 33.4105 30.8463 33.3402C30.7818 33.2698 30.7327 33.1868 30.7021 33.0964C30.6715 33.006 30.6601 32.9102 30.6686 32.8152L31.5135 23.1902C31.5207 23.0999 31.5457 23.012 31.5872 22.9316C31.6287 22.8511 31.6858 22.7797 31.7552 22.7215C31.8245 22.6634 31.9048 22.6196 31.9913 22.5928C32.0777 22.5659 32.1687 22.5566 32.2588 22.5653C32.6369 22.5983 32.9167 22.9317 32.883 23.3098L32.0381 32.9348C32.0231 33.106 31.9446 33.2654 31.818 33.3816C31.6914 33.4977 31.5259 33.5623 31.354 33.5625ZM26.765 33.5625L26.734 33.5618C26.5519 33.5538 26.3804 33.4737 26.2572 33.3393C26.1341 33.2048 26.0694 33.0269 26.0775 32.8448L26.4996 23.2198C26.5094 23.0382 26.59 22.8678 26.724 22.745C26.8581 22.6223 27.035 22.557 27.2166 22.5632C27.3988 22.5712 27.5703 22.6513 27.6934 22.7857C27.8166 22.9202 27.8812 23.0981 27.8732 23.2803L27.4511 32.9053C27.4433 33.0821 27.3676 33.249 27.2398 33.3715C27.112 33.4939 26.9419 33.5623 26.765 33.5625ZM22.1745 33.5625C21.9922 33.5625 21.8173 33.4901 21.6884 33.3611C21.5595 33.2322 21.487 33.0573 21.487 32.875V23.25C21.487 23.0677 21.5595 22.8928 21.6884 22.7639C21.8173 22.6349 21.9922 22.5625 22.1745 22.5625C22.3569 22.5625 22.5317 22.6349 22.6607 22.7639C22.7896 22.8928 22.862 23.0677 22.862 23.25V32.875C22.862 33.0573 22.7896 33.2322 22.6607 33.3611C22.5317 33.4901 22.3569 33.5625 22.1745 33.5625ZM17.5848 33.5625C17.4078 33.5623 17.2377 33.4939 17.1099 33.3715C16.9821 33.249 16.9064 33.0821 16.8986 32.9053L16.4765 23.2803C16.4685 23.0981 16.5332 22.9202 16.6563 22.7857C16.7794 22.6513 16.9509 22.5712 17.1331 22.5632C17.3149 22.5564 17.4921 22.6216 17.6263 22.7444C17.7604 22.8673 17.8409 23.038 17.8501 23.2198L18.2723 32.8448C18.2803 33.0269 18.2156 33.2048 18.0925 33.3393C17.9694 33.4737 17.7979 33.5538 17.6157 33.5618L17.5848 33.5625ZM12.995 33.5625C12.8232 33.5623 12.6577 33.4977 12.531 33.3816C12.4044 33.2654 12.3259 33.106 12.311 32.9348L11.4667 23.3098C11.4569 23.2189 11.4653 23.1269 11.4915 23.0393C11.5177 22.9516 11.5611 22.8701 11.6192 22.7994C11.6773 22.7288 11.7489 22.6704 11.8298 22.6278C11.9107 22.5852 11.9993 22.5591 12.0904 22.5512C12.1815 22.5432 12.2733 22.5535 12.3604 22.5815C12.4475 22.6094 12.5281 22.6545 12.5976 22.714C12.667 22.7735 12.7239 22.8463 12.7649 22.928C12.8059 23.0098 12.8301 23.0989 12.8362 23.1902L13.6805 32.8152C13.6888 32.9102 13.6772 33.0059 13.6465 33.0962C13.6158 33.1865 13.5667 33.2694 13.5022 33.3397C13.4378 33.41 13.3594 33.4661 13.2721 33.5045C13.1847 33.5428 13.0904 33.5626 12.995 33.5625ZM8.54415 34.6089C8.37747 34.6086 8.21656 34.5478 8.09136 34.4378C7.96616 34.3278 7.88519 34.176 7.86352 34.0107L6.0059 19.9019C5.98208 19.7212 6.03098 19.5384 6.14185 19.3938C6.25272 19.2492 6.41648 19.1545 6.59715 19.1305C6.6868 19.1178 6.77809 19.1231 6.86567 19.146C6.95325 19.169 7.03537 19.2093 7.1072 19.2644C7.17904 19.3195 7.23915 19.3884 7.28402 19.4671C7.3289 19.5457 7.35762 19.6325 7.36852 19.7224L9.22546 33.8313C9.23828 33.9283 9.23024 34.027 9.20187 34.1206C9.1735 34.2143 9.12547 34.3008 9.06097 34.3745C8.99647 34.4481 8.917 34.5071 8.82788 34.5475C8.73875 34.5879 8.64201 34.6088 8.54415 34.6089ZM35.8056 34.6089C35.7077 34.6089 35.611 34.5881 35.5218 34.5477C35.4327 34.5074 35.3531 34.4485 35.2886 34.3749C35.224 34.3014 35.1759 34.2149 35.1475 34.1213C35.119 34.0277 35.1109 33.929 35.1236 33.832L36.9798 19.7231C36.9911 19.6334 37.02 19.5468 37.065 19.4683C37.11 19.3898 37.1701 19.3211 37.2419 19.266C37.3136 19.211 37.3956 19.1707 37.483 19.1475C37.5705 19.1244 37.6616 19.1188 37.7512 19.1312C37.9319 19.1551 38.0956 19.2498 38.2065 19.3945C38.3174 19.5391 38.3663 19.7219 38.3425 19.9026L36.4862 34.0114C36.4644 34.1766 36.3834 34.3282 36.2582 34.4381C36.133 34.5479 35.9722 34.6086 35.8056 34.6089ZM33.0783 37H11.2708C11.0884 37 10.9136 36.9276 10.7846 36.7986C10.6557 36.6697 10.5833 36.4948 10.5833 36.3125C10.5833 36.1302 10.6557 35.9553 10.7846 35.8264C10.9136 35.6974 11.0884 35.625 11.2708 35.625H33.0783C33.2606 35.625 33.4355 35.6974 33.5644 35.8264C33.6933 35.9553 33.7658 36.1302 33.7658 36.3125C33.7658 36.4948 33.6933 36.6697 33.5644 36.7986C33.4355 36.9276 33.2606 37 33.0783 37Z" fill="black"/>
<path d="M11.0969 37.4935C10.2634 37.4916 9.45891 37.1876 8.83232 36.638C8.20573 36.0884 7.79954 35.3304 7.68898 34.5043C7.67425 34.4134 7.67791 34.3206 7.69972 34.2312C7.72154 34.1418 7.76108 34.0577 7.81599 33.9839C7.87091 33.9101 7.94008 33.848 8.01942 33.8014C8.09875 33.7548 8.18664 33.7246 8.27786 33.7126C8.36908 33.7006 8.46178 33.707 8.55048 33.7315C8.63917 33.756 8.72205 33.798 8.79421 33.8551C8.86636 33.9122 8.92632 33.9832 8.97053 34.0639C9.01475 34.1445 9.04232 34.2333 9.0516 34.3248C9.1181 34.8205 9.36196 35.2752 9.73801 35.6049C10.1141 35.9346 10.5968 36.1168 11.0969 36.1178C11.2793 36.1178 11.4543 36.1903 11.5833 36.3193C11.7123 36.4483 11.7848 36.6232 11.7848 36.8057C11.7848 36.9881 11.7123 37.1631 11.5833 37.292C11.4543 37.421 11.2793 37.4935 11.0969 37.4935ZM32.9037 37.4935C32.7214 37.4935 32.5465 37.4211 32.4176 37.2921C32.2887 37.1632 32.2162 36.9883 32.2162 36.806C32.2162 36.6237 32.2887 36.4488 32.4176 36.3199C32.5465 36.1909 32.7214 36.1185 32.9037 36.1185C33.4037 36.1172 33.8864 35.9349 34.2623 35.6052C34.6383 35.2756 34.8823 34.821 34.949 34.3255C34.9602 34.2357 34.9891 34.1491 35.0341 34.0706C35.079 33.992 35.1391 33.9233 35.2109 33.8682C35.2827 33.8131 35.3647 33.7728 35.4521 33.7497C35.5396 33.7266 35.6308 33.7211 35.7204 33.7336C35.9011 33.7575 36.0648 33.8522 36.1757 33.9969C36.2866 34.1415 36.3355 34.3243 36.3117 34.5049C36.201 35.3309 35.7947 36.0888 35.1681 36.6383C34.5415 37.1878 33.7371 37.4916 32.9037 37.4935ZM19.2355 7.67045C19.2355 6.11876 16.8293 6.11876 16.8293 7.67045C16.8293 9.22214 19.2355 9.22214 19.2355 7.67045ZM27.1714 7.67045C27.1714 6.11876 24.7651 6.11876 24.7651 7.67045C24.7651 9.22214 27.1714 9.22214 27.1714 7.67045Z" fill="black"/>
</svg>
